<?xml version="1.0" standalone="no"?><!DOCTYPE svg PUBLIC "-//W3C//DTD SVG 1.1//EN" "http://www.w3.org/Graphics/SVG/1.1/DTD/svg11.dtd"><svg t="1781086504482" class="icon" viewBox="0 0 1024 1024" version="1.1" xmlns="http://www.w3.org/2000/svg" p-id="5035" width="16" height="16" xmlns:xlink="http://www.w3.org/1999/xlink"><path d="M512 51.2a460.8 460.8 0 1 0 460.8 460.8 460.8 460.8 0 0 0-460.8-460.8z m148.48 557.568a35.84 35.84 0 1 1-51.2 51.2L512 563.2l-97.28 96.768a34.304 34.304 0 0 1-25.088 10.752 36.352 36.352 0 0 1-25.6-61.44L460.8 512 365.056 415.232a36.352 36.352 0 0 1 0-51.2 35.328 35.328 0 0 1 51.2 0L512 460.8l96.768-96.768a35.328 35.328 0 0 1 51.2 0 36.352 36.352 0 0 1 0 51.2L563.2 512z" fill="#707070" p-id="5036"></path></svg>